# xmcd
#
# Track frame offsets: 
#        150
#        32910
#        60736
#        81499
#        115009
#        122542
#        151201
#        174606
#        201486
#        234384
#        263535
#
# Disc length: 4176 seconds
#
# Revision: 1
# Processed by: cddbd v1.5.2PL0 Copyright (c) Steve Scherf et al.
# Submitted via: ExactAudioCopyFreeDBPlugin 1.0
#
DISCID=8f104e0b
DTITLE=ДДТ - Пропавший без вести
DYEAR=2005
DGENRE=Rock
TTITLE0=Мог бы
TTITLE1=В бой
TTITLE2=Пропавший без вести
TTITLE3=Звезда
TTITLE4=Небо над озером
TTITLE5=Дым
TTITLE6=Понимающее сердце
TTITLE7=25
TTITLE8=Адам и Ева
TTITLE9=Контрреволюция
TTITLE10=Русский рок
EXTD=
EXTT0=
EXTT1=
EXTT2=
EXTT3=
EXTT4=
EXTT5=
EXTT6=
EXTT7=
EXTT8=
EXTT9=
EXTT10=
PLAYORDER=
